<?xml version="1.0" encoding="UTF-8"?>
<svg xmlns="http://www.w3.org/2000/svg" xmlns:xlink="http://www.w3.org/1999/xlink" width="2041.09pt" height="350pt" viewBox="0 0 2041.09 350">
<defs>
<clipPath id="clip-0">
<path clip-rule="nonzero" d="M 1839 43 L 2041.089844 43 L 2041.089844 307 L 1839 307 Z M 1839 43 "/>
</clipPath>
</defs>
<path fill-rule="nonzero" fill="rgb(7.450867%, 16.078186%, 29.411316%)" fill-opacity="1" d="M 430.84375 302.863281 L 487.089844 302.863281 L 487.089844 47.203125 L 430.84375 47.203125 Z M 430.84375 302.863281 "/>
<path fill-rule="nonzero" fill="rgb(7.450867%, 16.078186%, 29.411316%)" fill-opacity="1" d="M 610.15625 47.203125 L 553.90625 47.203125 L 553.90625 302.867188 L 737.617188 302.867188 L 737.617188 251.730469 L 610.15625 251.730469 Z M 610.15625 47.203125 "/>
<path fill-rule="nonzero" fill="rgb(7.450867%, 16.078186%, 29.411316%)" fill-opacity="1" d="M 835.0625 47.203125 L 778.820312 47.203125 L 778.820312 302.867188 L 962.53125 302.867188 L 962.53125 251.730469 L 835.0625 251.730469 Z M 835.0625 47.203125 "/>
<path fill-rule="nonzero" fill="rgb(7.450867%, 16.078186%, 29.411316%)" fill-opacity="1" d="M 1004.96875 302.863281 L 1061.210938 302.863281 L 1061.210938 47.203125 L 1004.96875 47.203125 Z M 1004.96875 302.863281 "/>
<path fill-rule="nonzero" fill="rgb(7.450867%, 16.078186%, 29.411316%)" fill-opacity="1" d="M 1299.691406 204.613281 L 1179.902344 47.203125 L 1128.035156 47.203125 L 1128.035156 302.863281 L 1183.542969 302.863281 L 1183.542969 140.339844 L 1307.359375 302.863281 L 1355.207031 302.863281 L 1355.207031 47.203125 L 1299.691406 47.203125 Z M 1299.691406 204.613281 "/>
<path fill-rule="nonzero" fill="rgb(7.450867%, 16.078186%, 29.411316%)" fill-opacity="1" d="M 1621.339844 175.765625 C 1621.339844 219.59375 1589.933594 255.382812 1544.644531 255.382812 C 1499.355469 255.382812 1467.207031 218.859375 1467.207031 175.03125 L 1467.207031 174.304688 C 1467.207031 130.476562 1498.625 94.679688 1543.914062 94.679688 C 1589.203125 94.679688 1621.339844 131.207031 1621.339844 175.03125 Z M 1544.644531 42.820312 C 1465.75 42.820312 1408.410156 102.351562 1408.410156 175.03125 L 1408.410156 175.765625 C 1408.410156 248.441406 1465.023438 307.25 1543.914062 307.25 C 1622.808594 307.25 1680.136719 247.722656 1680.136719 175.03125 L 1680.136719 174.304688 C 1680.136719 101.621094 1623.535156 42.820312 1544.644531 42.820312 "/>
<path fill-rule="nonzero" fill="rgb(7.450867%, 16.078186%, 29.411316%)" fill-opacity="1" d="M 1734.574219 302.863281 L 1790.832031 302.863281 L 1790.832031 47.203125 L 1734.574219 47.203125 Z M 1734.574219 302.863281 "/>
<g clip-path="url(#clip-0)">
<path fill-rule="nonzero" fill="rgb(7.450867%, 16.078186%, 29.411316%)" fill-opacity="1" d="M 1960.347656 149.835938 C 1916.160156 138.507812 1905.191406 133.035156 1905.191406 116.230469 L 1905.191406 115.5 C 1905.191406 103.085938 1916.527344 93.222656 1938.066406 93.222656 C 1959.617188 93.222656 1981.898438 102.71875 2004.535156 118.421875 L 2033.765625 76.058594 C 2007.832031 55.234375 1976.050781 43.554688 1938.796875 43.554688 C 1886.574219 43.554688 1849.320312 74.230469 1849.320312 120.613281 L 1849.320312 121.339844 C 1849.320312 172.109375 1882.558594 186.355469 1934.0625 199.503906 C 1976.792969 210.464844 1985.554688 217.761719 1985.554688 232.007812 L 1985.554688 232.742188 C 1985.554688 247.722656 1971.671875 256.847656 1948.660156 256.847656 C 1919.4375 256.847656 1895.339844 244.789062 1872.328125 225.800781 L 1839.089844 265.609375 C 1869.769531 293.003906 1908.847656 306.519531 1947.570312 306.519531 C 2002.714844 306.519531 2041.4375 278.023438 2041.4375 227.265625 L 2041.4375 226.53125 C 2041.4375 181.972656 2012.214844 163.347656 1960.347656 149.835938 "/>
</g>
<path fill-rule="nonzero" fill="rgb(7.450867%, 16.078186%, 29.411316%)" fill-opacity="1" d="M 228.980469 336.53125 L 13.589844 336.53125 L 13.589844 269.230469 L 53.980469 269.230469 C 61.40625 269.230469 67.441406 263.195312 67.441406 255.761719 L 67.441406 94.226562 C 67.441406 86.789062 61.40625 80.765625 53.980469 80.765625 L 13.589844 80.765625 L 13.589844 13.464844 L 228.980469 13.464844 L 228.980469 80.765625 L 188.601562 80.765625 C 181.164062 80.765625 175.132812 86.789062 175.132812 94.226562 L 175.132812 255.761719 C 175.132812 263.195312 181.164062 269.230469 188.601562 269.230469 L 228.980469 269.230469 Z M 188.601562 255.761719 L 188.601562 94.226562 L 242.445312 94.226562 L 242.445312 0 L 0.136719 0 L 0.136719 94.226562 L 53.980469 94.226562 L 53.980469 255.761719 L 0.136719 255.761719 L 0.136719 350 L 242.445312 350 L 242.445312 255.761719 Z M 188.601562 255.761719 "/>
<path fill-rule="nonzero" fill="rgb(100%, 37.254333%, 1.960754%)" fill-opacity="1" d="M 188.597656 80.765625 L 228.980469 80.765625 L 228.980469 13.460938 L 13.589844 13.460938 L 13.589844 80.765625 L 53.980469 80.765625 C 61.40625 80.765625 67.441406 86.789062 67.441406 94.230469 L 67.441406 255.769531 C 67.441406 263.195312 61.40625 269.230469 53.980469 269.230469 L 13.589844 269.230469 L 13.589844 336.53125 L 228.980469 336.53125 L 228.980469 269.230469 L 188.597656 269.230469 C 181.164062 269.230469 175.132812 263.195312 175.132812 255.769531 L 175.132812 94.230469 C 175.132812 86.789062 181.164062 80.765625 188.597656 80.765625 "/>
</svg>
